<svg xmlns="http://www.w3.org/2000/svg" version="1.1" xmlns:xlink="http://www.w3.org/1999/xlink" xmlns:svgjs="http://svgjs.dev/svgjs" width="86" height="117"><svg version="1.1" id="SvgjsSvg1013" xmlns="http://www.w3.org/2000/svg" xmlns:xlink="http://www.w3.org/1999/xlink" x="0px" y="0px" viewBox="0 0 86 117" style="enable-background:new 0 0 86 117;" xml:space="preserve">
<style type="text/css">
	.st0{clip-path:url(#SVGID_00000127008413332241038890000002601185702894272186_);}
	.st1{fill:#133245;}
	.st2{fill:#123244;}
</style>
<g>
	<defs>
		<rect id="SvgjsRect1012" y="0.2" width="86" height="116"></rect>
	</defs>
	<clipPath id="SvgjsClipPath1011">
		<use xlink:href="#SVGID_1_" style="overflow:visible;"></use>
	</clipPath>
	<g style="clip-path:url(#SVGID_00000140695915825969876270000005547368114359950471_);">
		<path class="st1" d="M49.5,108.4c9.7,0,17.7,2.6,23.1,7.7H87c-1.2-1-2.4-2.3-3.5-3.9c-1.6-2.5-2.8-5.7-3.1-9.6V93
			c-2.6-4-6.7-7.2-12.7-9.6l-4.3-1.8c-3.4-1.4-7.3-3.2-7.3-6.2c0-2.6,2.7-3.6,6-3.6c7.5,0,13.8,3.3,18.3,10V61.3
			c0-1.7-0.1-3.4-0.4-5c-2.1-14.8-13.8-22.7-30.6-22.7C31,33.7,19,43.6,19,62.1v40.5c-0.4,6.6-3.4,10.9-6.6,13.5h14.5
			C32.2,111.1,40,108.4,49.5,108.4L49.5,108.4z"></path>
		<path class="st2" d="M72,5.5c-2.4-1.7-14-5.9-26.5-5.3C10.4,1.8-4.4,31.7,1.1,52.6c1.8,6.9,4.9,12.8,9,17.5
			c-0.2-0.8-0.4-1.6-0.5-2.4C7,51,13.5,38.1,25.2,29.6c13.6-9.9,33.1-6.7,36.7-5.4L72,5.5L72,5.5z"></path>
	</g>
</g>
</svg><style>@media (prefers-color-scheme: light) { :root { filter: none; } }
@media (prefers-color-scheme: dark) { :root { filter: none; } }
</style></svg>