<?xml version="1.0" encoding="UTF-8"?>
<svg id="Ebene_1" xmlns="http://www.w3.org/2000/svg" version="1.1" viewBox="0 0 1812 314">
  <!-- Generator: Adobe Illustrator 29.0.1, SVG Export Plug-In . SVG Version: 2.1.0 Build 192)  -->
  <defs>
    <style>
      .st0 {
        fill: #fff;
      }
    </style>
  </defs>
  <path class="st0" d="M130.6,258.6c19.9,0,36.2,5.4,47.3,15.7h29.5c-2.5-2-4.9-4.7-7.1-8-3.3-5.1-5.8-11.6-6.4-19.4v-19.5c-5.4-8.1-13.8-14.6-26-19.5l-8.7-3.6c-6.9-2.9-15-6.5-15-12.5s5.6-7.4,12.3-7.4c15.5,0,28.2,6.7,37.4,20.1v-41.2c0-3.5-.3-6.8-.8-10-4.3-30-28.2-45.9-62.6-45.9s-62.4,20.1-62.4,57.5v82c-.7,13.4-7,22.2-13.6,27.4h29.7c10.9-10.3,26.9-15.7,46.3-15.7h0Z"/>
  <path class="st0" d="M176.8,50.3c-4.9-3.5-28.7-11.9-54.3-10.8-71.9,3.3-102.3,63.7-90.9,106,3.8,14,10.1,25.9,18.4,35.4-.4-1.7-.8-3.3-1.1-4.9-5.4-33.7,7.9-59.7,31.9-76.9,27.8-20,67.8-13.5,75.2-10.9l20.8-37.8h0Z"/>
  <path class="st0" d="M1696.2,271.3h-45V110.4h45c70.8,0,95.4,39.3,95.4,78.1s-25.5,82.7-95.4,82.7ZM1698.5,154.3v72.6h3.2c24.6,0,41.1-10.8,41.1-37s-16.5-35.6-41.8-35.6h-2.5Z"/>
  <path class="st0" d="M1573.9,271.3h-47.3V110.4h47.6c44.6,0,66.9,19.1,66.9,53.1s-10.8,31.9-21.6,38.2l29.2,69.6h-53.1l-19.5-63.7h-2.1v63.7ZM1573.9,150.4v30.1h3.5c11.9,0,17-7.1,17-14.9s-7.8-15.2-17.5-15.2h-3Z"/>
  <path class="st0" d="M1429.8,271.3h-47.1l32.4-160.9h70.8l32.4,160.9h-49.2l-4.6-29.6h-30.1l-4.6,29.6ZM1449.8,144.2l-9,57.5h17.7l-8.7-57.5Z"/>
  <path class="st0" d="M1335.9,110.4h46.7v104.4c0,38.4-25.3,59.1-64.1,59.1s-65-20-65-57.5v-106h47.3v100c0,12.4,6,20.2,17.7,20.2s17.5-7.8,17.5-18.8v-101.4Z"/>
  <path class="st0" d="M1179.9,274c-51.5,0-83.7-34-83.7-82.7s32.9-83.7,86.4-83.7,48.5,6,55.9,11.3v49.4c-9.9-7.8-29-16.8-55.9-16.8s-39.1,19.8-39.1,39.8,16.6,39.8,36.8,39.8,13.3-1.1,17.9-3.4v-43.4h44.6v71.7c-18.2,13.1-43.9,18.2-63,18.2Z"/>
  <path class="st0" d="M963.9,270.6h-46.7V109.8h46.7v56.5h39v-56.5h46.7v160.9h-46.7v-58.4h-39v58.4Z"/>
  <path class="st0" d="M872.5,273.2c-48.2,0-82.5-35.6-82.5-81.2s40.8-84.9,82.7-84.9,24.3,1.8,34.1,5.3v54.6c-5.8-7.1-16.9-14-32.2-14-23.4,0-36.8,16.7-36.8,37.2s14.1,37.2,36.8,37.2,26.4-6.2,32.2-12.8v52.8c-10,3.9-23.4,6-34.3,6Z"/>
  <path class="st0" d="M718,270.6h-47.3V109.8h47.5c44.6,0,66.8,19.1,66.8,53.1s-10.8,31.9-21.6,38.1l29.2,69.6h-53.1l-19.5-63.7h-2.1v63.7ZM718,149.8v30.1h3.4c11.9,0,17-7.1,17-14.9s-7.8-15.2-17.5-15.2h-3Z"/>
  <path class="st0" d="M573.2,270.6h-47.8l32.9-160.9h71.8l32.9,160.9h-49.9l-4.7-29.6h-30.5l-4.7,29.6ZM593.5,143.6l-9.1,57.5h17.9l-8.9-57.5Z"/>
  <path class="st0" d="M517.6,270.6h-96V109.8h96v46h-48.5v13.8h48.5v41.4h-48.5v13.8h48.5v46Z"/>
  <path class="st0" d="M370.5,168.4l9,3.7c24.4,9.9,34.4,25.5,34.4,48.6s-20.1,52.5-53,52.5-34.8-2.3-49.4-11.7v-50.9c12.2,12.8,26.5,22,45.7,22s12.7-1.6,12.7-9.2-7.6-8.9-15.9-12.4l-13.8-5.7c-21.4-8.9-30-22-30-45s24.4-53.2,54.7-53.2,33.9,4.6,41.5,9.4v52.1c-9.5-13.8-22.6-20.6-38.5-20.6s-12.7,2.1-12.7,7.6,8.3,9.9,15.5,12.8Z"/>
  <metadata>
    <sfw xmlns="http://ns.adobe.com/SaveForWeb/1.0/">
      <slices/>
      <sliceSourceBounds x="29.21" y="39.7" width="1762.4" height="234.84" bottomLeftOrigin="true"/>
    </sfw>
  </metadata>
</svg>