<?xml version="1.0" encoding="UTF-8"?>
<svg width="100px" height="48px" viewBox="0 0 100 48" version="1.1" xmlns="http://www.w3.org/2000/svg" xmlns:xlink="http://www.w3.org/1999/xlink">
    <!-- Generator: sketchtool 53.2 (72643) - https://sketchapp.com -->
    <title>AD94E4C1-E8CB-4BA5-9AEA-72E08A5C91AD</title>
    <desc>Created with sketchtool.</desc>
    <defs>
        <polygon id="path-1" points="0.0150375936 0.239369458 99.8516271 0.239369458 99.8516271 47.9218037 0.0150375936 47.9218037"></polygon>
    </defs>
    <g id="Templates" stroke="none" stroke-width="1" fill="none" fill-rule="evenodd">
        <g id="SG_generic_content_mobile" transform="translate(-24.000000, -16.000000)">
            <g id="hero-/-small-/-mobile">
                <g id="menu-/-nav-dark-/-default-mobile">
                    <g id="logo-/-Search-Guard-/-white" transform="translate(24.000000, 16.000000)">
                        <g id="Search-Guard-logo">
                            <mask id="mask-2" fill="white">
                                <use xlink:href="#path-1"></use>
                            </mask>
                            <g id="Clip-2"></g>
                            <path d="M57.2192964,42.4882205 C57.2192964,45.8421051 59.5478679,47.9215536 62.2721788,47.9215536 C64.2195473,47.9215536 65.3328306,46.8087717 65.3328306,46.8087717 L65.3619033,46.8087717 C65.3619033,46.8087717 65.3471163,47.0283206 65.3471163,47.2478694 L65.3471163,47.7463656 L66.9877179,47.7463656 L66.9877179,43.3085213 C66.9877179,42.6203007 66.6949861,42.3275689 65.9919785,42.3275689 L64.3075173,42.3275689 L64.3075173,43.9526315 L64.9375925,43.9526315 C65.142605,43.9526315 65.2596476,44.0553884 65.2596476,44.2749372 L65.2596476,45.0516289 C65.2596476,45.0516289 64.2784446,46.1348369 62.6235573,46.1348369 C60.7634068,46.1348369 59.2110258,44.7436089 59.2110258,42.4739348 C59.2110258,40.3649124 60.7486199,38.9441104 62.5503743,38.9441104 C64.1320787,38.9441104 65.215788,39.8664162 65.215788,39.8664162 L66.2997479,38.4897245 C66.2997479,38.4897245 65.0546351,37.1716795 62.5060134,37.1716795 C59.4889707,37.1716795 57.2192964,39.500752 57.2192964,42.4882205 L57.2192964,42.4882205 Z M68.9496221,45.0804511 C68.9496221,47.1160401 69.9310757,47.9215539 71.5275669,47.9215539 C72.8165392,47.9215539 73.7536319,47.145614 74.105261,46.3696742 L74.1348349,46.3696742 C74.1348349,46.3696742 74.1195467,46.5303258 74.1195467,46.7062657 L74.1195467,46.9115288 C74.1195467,47.4383458 74.45689,47.7463659 75.1007497,47.7463659 L76.8142834,47.7463659 L76.8142834,46.1789474 L76.2283185,46.1789474 C76.0238073,46.1789474 75.906514,46.0616541 75.906514,45.8568922 L75.906514,40.2764412 L74.0463637,40.2764412 L74.0463637,43.7035088 C74.0463637,45.0368421 73.2997472,46.2233083 71.9526295,46.2233083 C71.0295719,46.2233083 70.7952361,45.6077694 70.7952361,44.7 L70.7952361,41.2578948 C70.7952361,40.5844613 70.5027549,40.2764412 69.8140331,40.2764412 L68.0416021,40.2764412 L68.0416021,41.8583961 L68.627567,41.8583961 C68.8328301,41.8583961 68.9496221,41.961153 68.9496221,42.1807018 L68.9496221,45.0804511 Z M77.5909749,45.5929826 C77.5909749,47.0869676 78.8062631,47.9215541 80.1388446,47.9215541 C81.8233058,47.9215541 82.3942331,46.603509 82.3942331,46.603509 L82.4238071,46.603509 C82.4238071,46.603509 82.4092707,46.7355892 82.4092707,46.9258147 C82.4092707,47.3651631 82.6726792,47.7463661 83.3606492,47.7463661 L85.0303234,47.7463661 L85.0303234,46.1789476 L84.4446091,46.1789476 C84.2393459,46.1789476 84.122554,46.0616543 84.122554,45.8568924 L84.122554,43.0741856 C84.122554,41.4047621 83.3899725,40.1010027 80.9007494,40.1010027 C80.1240576,40.1010027 78.161401,40.2473686 78.161401,41.6388473 L78.161401,42.4295741 L79.8897218,42.4295741 L79.8897218,42.034336 C79.8897218,41.6240603 80.5488697,41.5365916 80.8854612,41.5365916 C81.8378421,41.5365916 82.2624035,41.9320804 82.2624035,43.0010027 L82.2624035,43.0598999 L82.0283183,43.0598999 C80.8122782,43.0598999 77.5909749,43.2501255 77.5909749,45.5929826 L77.5909749,45.5929826 Z M79.4651615,45.5052633 C79.4651615,44.4654136 81.0030061,44.3338347 81.9696728,44.3338347 L82.2919786,44.3338347 L82.2919786,44.5097745 C82.2919786,45.4172933 81.5887204,46.4719299 80.5927304,46.4719299 C79.8308256,46.4719299 79.4651615,46.0032583 79.4651615,45.5052633 L79.4651615,45.5052633 Z M86.5243093,47.7463658 L88.3699232,47.7463658 L88.3699232,44.7877193 C88.3699232,44.3481203 88.4285698,43.9380952 88.5305748,43.5716792 C88.8674169,42.4591479 89.7756876,42.0052632 90.5661637,42.0052632 C90.8300735,42.0052632 91.0205497,42.0343359 91.0205497,42.0343359 L91.0205497,40.2032583 C91.0205497,40.2032583 90.8446098,40.1741856 90.6837076,40.1741856 C89.5416024,40.1741856 88.6478681,41.0238096 88.311026,42.0927319 L88.2817027,42.0927319 C88.2817027,42.0927319 88.311026,41.9022557 88.311026,41.6240602 L88.311026,41.1847119 C88.311026,40.5551379 87.9744345,40.2764412 87.3152867,40.2764412 L85.6160386,40.2764412 L85.6160386,41.8583961 L86.2020035,41.8583961 C86.4072667,41.8583961 86.5243093,41.9611529 86.5243093,42.1807018 L86.5243093,47.7463658 Z M91.5328291,44.0112783 C91.5328291,46.3255639 92.8363379,47.9215538 94.8573907,47.9215538 C96.5709246,47.9215538 97.1859622,46.7062657 97.1859622,46.7062657 L97.2157867,46.7062657 L97.2157867,46.9844611 C97.2157867,47.4240601 97.4644083,47.7463659 98.1380925,47.7463659 L99.8516264,47.7463659 L99.8516264,46.1789474 L99.2806991,46.1789474 C99.0756866,46.1789474 98.9583933,46.0616541 98.9583933,45.8568922 L98.9583933,38.3433586 C98.9583933,37.6553887 98.6503733,37.3478699 97.9624033,37.3478699 L96.1902228,37.3478699 L96.1902228,38.9293235 L96.7761877,38.9293235 C96.9812003,38.9293235 97.0984935,39.0320804 97.0984935,39.2516293 L97.0984935,40.5696743 C97.0984935,40.8187971 97.1127792,41.0092733 97.1127792,41.0092733 L97.0837065,41.0092733 C97.0837065,41.0092733 96.5566388,40.1010027 94.9305736,40.1010027 C92.9536312,40.1010027 91.5328291,41.6388473 91.5328291,44.0112783 L91.5328291,44.0112783 Z M95.2676666,46.3548871 C94.1686691,46.3548871 93.4223032,45.4320801 93.4223032,44.0112781 C93.4223032,42.5323308 94.2716766,41.6972431 95.2964886,41.6972431 C96.5416014,41.6972431 97.1421027,42.8398496 97.1421027,43.9969924 C97.1421027,45.651629 96.2343332,46.3548871 95.2676666,46.3548871 L95.2676666,46.3548871 Z" id="Fill-1" fill="#FFFFFF" mask="url(#mask-2)"></path>
                            <path d="M0,46.4571416 C0,46.4571416 1.15714289,47.9218031 3.2661655,47.9218031 C5.19924825,47.9218031 6.38546382,46.6182944 6.38546382,45.0807005 C6.38546382,41.6829563 1.3035088,42.2686706 1.3035088,39.8814526 C1.3035088,39.0027559 2.07994993,38.2263149 3.41253141,38.2263149 C4.36441114,38.2263149 5.21378459,38.6804502 5.21378459,39.2954878 L5.21378459,39.779197 L6.18070191,39.779197 L6.18070191,39.0468662 C6.18070191,37.6992472 4.39398507,37.2746858 3.39749382,37.2746858 C1.493985,37.2746858 0.249122813,38.4754377 0.249122813,39.9107759 C0.249122813,43.103257 5.33107783,42.5904751 5.33107783,45.1390965 C5.33107783,46.2375927 4.42305776,46.9699235 3.29523818,46.9699235 C1.6694236,46.9699235 0.630075204,45.7105251 0.630075204,45.7105251 L0,46.4571416 Z M7.70325816,44.0701744 C7.70325816,46.3398485 9.37268175,47.9218034 11.5548873,47.9218034 C13.2248121,47.9218034 14.2937345,46.8674174 14.2937345,46.8674174 L13.8105264,46.1202997 C13.8105264,46.1202997 12.9466167,47.0285703 11.5989976,47.0285703 C10.0756893,47.0285703 8.77218049,45.9591468 8.7431078,44.0992471 L14.3964914,44.0992471 C14.3964914,44.0992471 14.4255641,43.777192 14.4255641,43.6017534 C14.4255641,41.7709263 13.3711781,40.2035078 11.3353384,40.2035078 C9.35814541,40.2035078 7.70325816,41.6533825 7.70325816,44.0701744 L7.70325816,44.0701744 Z M8.78721825,43.3085203 C9.03583981,41.8293224 10.1052634,41.038345 11.3208022,41.038345 C12.4042609,41.038345 13.3421055,41.7854628 13.4002509,43.3085203 L8.78721825,43.3085203 Z M15.7285714,45.7395979 C15.7285714,47.2042595 17.0032581,47.9218034 18.2330827,47.9218034 C20.078446,47.9218034 20.6937343,46.3255628 20.6789473,46.3255628 L20.7082706,46.3255628 C20.7082706,46.3255628 20.6937343,46.5451117 20.6937343,46.8674174 C20.6937343,47.4674174 20.9423558,47.7463648 21.572431,47.7463648 L22.5827067,47.7463648 L22.5827067,46.8819538 L21.9679197,46.8819538 C21.7629072,46.8819538 21.6456139,46.7794475 21.6456139,46.5598987 L21.6456139,43.0300742 C21.6456139,41.4486206 21.089223,40.2035078 18.7604009,40.2035078 C18.1162907,40.2035078 16.3586466,40.423558 16.3586466,41.4486206 L16.3586466,42.1513775 L17.3102757,42.1513775 L17.3102757,41.6829564 C17.3102757,41.1406005 18.3799498,41.0383449 18.7458646,41.0383449 C20.0934836,41.0383449 20.6498746,41.5801995 20.6498746,43.1180441 L20.6498746,43.2062647 L20.2398495,43.2062647 C18.9651628,43.2062647 15.7285714,43.2937333 15.7285714,45.7395979 L15.7285714,45.7395979 Z M16.7541351,45.6809516 C16.7541351,44.0260644 19.0679195,43.9969917 20.225313,43.9969917 L20.6498744,43.9969917 L20.6498744,44.3338338 C20.6498744,45.6077687 19.8002503,47.0721797 18.3944859,47.0721797 C17.2957391,47.0721797 16.7541351,46.3696734 16.7541351,45.6809516 L16.7541351,45.6809516 Z M24.1646622,47.7463651 L25.1604016,47.7463651 L25.1604016,44.6408513 C25.1604016,44.1724302 25.2190482,43.6749365 25.3654141,43.2062648 C25.6877199,42.1218037 26.4639104,41.3022548 27.5040107,41.3022548 C27.6939856,41.3022548 27.8696749,41.3310769 27.8696749,41.3310769 L27.8696749,40.3498738 C27.8696749,40.3498738 27.6794493,40.3060142 27.4744367,40.3060142 C26.3175445,40.3060142 25.4972437,41.1558889 25.1458652,42.2686708 L25.1162913,42.2686708 C25.1162913,42.2686708 25.1458652,42.019548 25.1458652,41.7122799 L25.1458652,41.2142849 C25.1458652,40.62832 24.8676697,40.3791972 24.2523815,40.3791972 L23.2273188,40.3791972 L23.2273188,41.2433576 L23.8423564,41.2433576 C24.0473689,41.2433576 24.1646622,41.3606508 24.1646622,41.5659139 L24.1646622,47.7463651 Z M28.4852126,44.0701744 C28.4852126,46.3546355 30.1546361,47.9218034 32.351378,47.9218034 C34.2408516,47.9218034 35.236591,46.7210515 35.236591,46.7210515 L34.7681699,45.9739338 C34.7681699,45.9739338 33.9040095,47.0137834 32.3954882,47.0137834 C30.8433579,47.0137834 29.5102752,45.8859638 29.5102752,44.0701744 C29.5102752,42.2834577 30.7847113,41.0969915 32.3664156,41.0969915 C32.9814531,41.0969915 34.0503754,41.3897233 34.0503754,42.0052622 L34.0503754,42.4298236 L34.9874682,42.4298236 L34.9874682,41.7709263 C34.9874682,40.5551369 33.2007514,40.2035078 32.3664156,40.2035078 C30.1691725,40.2035078 28.4852126,41.8150366 28.4852126,44.0701744 L28.4852126,44.0701744 Z M36.8182959,47.7463651 L37.8142858,47.7463651 L37.8142858,44.2165405 C37.8142858,43.8649115 37.8438598,43.5285706 37.9315791,43.2353375 C38.2684212,42.0052623 39.3523811,41.1406007 40.5972433,41.1406007 C42.0323311,41.1406007 42.2080203,42.1659139 42.2080203,43.3233074 L42.2080203,46.8526308 C42.2080203,47.482706 42.4716794,47.7463651 43.1017546,47.7463651 L44.141103,47.7463651 L44.141103,46.8819541 L43.5263161,46.8819541 C43.3213035,46.8819541 43.2040103,46.7794478 43.2040103,46.5598989 L43.2040103,43.0598989 C43.2040103,41.2433575 42.5593987,40.2035079 40.7290729,40.2035079 C39.0741856,40.2035079 38.0929826,41.3310768 37.8142858,42.034335 L37.7852132,42.034335 C37.7852132,42.034335 37.8142858,41.7709265 37.8142858,41.4338337 L37.8142858,38.3147861 C37.8142858,37.7140342 37.5506267,37.4501244 36.9210527,37.4501244 L35.8812031,37.4501244 L35.8812031,38.3147861 L36.4962407,38.3147861 C36.7015039,38.3147861 36.8182959,38.4315781 36.8182959,38.6360894 L36.8182959,47.7463651 L36.8182959,47.7463651 Z" id="Fill-3" fill="#FFFFFF" mask="url(#mask-2)"></path>
                            <g id="helmet" mask="url(#mask-2)" fill="#FFFFFF">
                                <g transform="translate(30.075188, 0.250627)">
                                    <path d="M29.4546371,5.77316197 C22.2285718,-3.25490835 3.1674186,-3.23535948 0,17.0453426 C0,17.0453426 3.37042612,16.4796784 5.2849625,12.9646408 C8.11177959,7.77566827 16.5761908,3.90449026 23.1739352,8.62504172 C24.0002511,6.81251036 25.82381,5.55010432 27.9453639,5.55010432 C28.4706772,5.55010432 28.9766922,5.62955295 29.4546371,5.77316197" id="Fill-4"></path>
                                    <path d="M22.9045107,9.3573723 C15.6353379,4.20474072 8.24661621,10.3887006 8.24661621,10.3887006 C8.24661621,11.2343147 8.22080168,12.1205302 8.22080168,12.1205302 C9.41629037,11.2064951 13.0563906,9.66714673 17.2874682,10.7393272 C17.2671674,10.2506054 17.2874682,9.1460941 17.2874682,9.1460941 C17.2874682,9.1460941 20.1563904,9.93256027 22.9508766,12.3982244 C22.7892224,11.8927106 22.6997488,11.3553673 22.6997488,10.7962194 C22.6997488,10.29647 22.7739342,9.81476578 22.9045107,9.3573723" id="Fill-6"></path>
                                    <path d="M12.6977445,24.9814326 C12.6977445,24.9814326 17.7395992,20.0984751 17.2621556,11.527297 C12.6120302,10.1002294 4.01027567,12.3744149 4.54812029,20.3856932 C5.27619047,31.2282998 1.89699242,32.6658938 1.89699242,32.6658938 C5.80576442,35.3032372 10.006767,31.681182 17.3441105,36.7924603 C18.7914789,30.0596281 12.6977445,24.9814326 12.6977445,24.9814326" id="Fill-7"></path>
                                    <path d="M18.3403509,10.298976 C18.793985,19.8393272 13.5340851,24.9197784 13.5340851,24.9197784 C13.5340851,24.9197784 20.5588973,30.7826859 17.5726817,38.7463453 C19.2213033,39.2283002 22.2553886,49.9716589 22.2553886,49.9716589 C22.3238096,49.8603807 21.7922307,39.8405809 23.38396,36.7696535 C23.38396,36.7696535 22.7912282,35.9731622 22.7448623,35.8345657 C23.9609024,31.390706 23.557143,28.7681495 23.1413535,27.9516081 C22.6829575,27.05236 22.6300753,27.0816833 21.9330828,27.0320592 C21.2406016,26.9824351 20.6192983,26.9079991 20.0897243,26.7661444 C18.6373434,26.3779238 18.3466165,26.039578 18.2411027,25.2110065 C18.1238095,24.2917082 18.9122807,23.8591268 20.4769424,24.0934626 C22.2641605,24.3611318 24.1977445,25.1653925 24.869925,26.2044903 C24.9293235,26.435568 24.1345866,31.1546157 24.2205515,31.2879491 C24.4917295,31.7117586 24.9784463,32.5754178 24.9784463,32.5754178 C26.8208022,23.6927107 29.7428574,15.5964699 18.3403509,10.298976" id="Fill-8"></path>
                                </g>
                            </g>
                        </g>
                    </g>
                </g>
            </g>
        </g>
    </g>
</svg>