<svg width="1812" height="314" viewBox="0 0 1812 314" fill="none" xmlns="http://www.w3.org/2000/svg">
<path d="M130.585 258.599C150.457 258.599 166.819 263.961 177.93 274.27H207.421C204.933 272.253 202.473 269.572 200.345 266.283C197.056 261.197 194.541 254.674 193.905 246.853V227.312C188.543 219.186 180.114 212.746 167.925 207.799L159.191 204.206C152.254 201.304 144.211 197.711 144.211 191.686C144.211 186.324 149.794 184.306 156.51 184.306C171.96 184.306 184.729 191.022 193.905 204.455V163.273C193.905 159.763 193.601 156.446 193.132 153.24C188.82 123.28 164.94 107.332 130.557 107.332C92.7475 107.332 68.1214 127.481 68.1214 164.849V246.88C67.3752 260.313 61.0735 269.047 54.5508 274.298H84.2348C95.1521 264.016 111.1 258.627 130.557 258.627L130.585 258.599Z" fill="#1A4A63"/>
<path d="M176.768 50.3411C171.848 46.831 148.079 38.4011 122.43 39.562C50.5141 42.8233 20.1391 103.297 31.5539 145.584C35.3404 159.597 41.6697 171.509 49.9613 180.934C49.5468 179.276 49.1322 177.645 48.8834 176.042C43.5215 142.295 56.8158 116.315 80.7509 99.0959C108.556 79.113 148.576 85.6081 155.984 88.1509L176.74 50.3134L176.768 50.3411Z" fill="#1A4A63"/>
<path d="M1696.23 271.288H1651.18V110.395H1696.23C1767.02 110.395 1791.61 149.699 1791.61 188.543C1791.61 231.065 1766.1 271.288 1696.23 271.288ZM1698.52 154.296V226.928H1701.74C1726.34 226.928 1742.88 216.125 1742.88 189.922C1742.88 167.168 1726.34 154.296 1701.05 154.296H1698.52Z" fill="#184962"/>
<path d="M1573.94 271.288H1526.59V110.395H1574.17C1618.76 110.395 1641.06 129.473 1641.06 163.49C1641.06 181.418 1630.25 195.439 1619.45 201.645L1648.64 271.288H1595.55L1576.01 207.621H1573.94V271.288ZM1573.94 150.389V180.499H1577.39C1589.34 180.499 1594.4 173.373 1594.4 165.559C1594.4 154.756 1586.58 150.389 1576.93 150.389H1573.94Z" fill="#184962"/>
<path d="M1429.77 271.288H1382.66L1415.06 110.395H1485.86L1518.27 271.288H1469.08L1464.48 241.638H1434.37L1429.77 271.288ZM1449.77 144.183L1440.81 201.645H1458.51L1449.77 144.183Z" fill="#184962"/>
<path d="M1335.93 110.395H1382.59V214.746C1382.59 253.13 1357.31 273.817 1318.46 273.817C1279.39 273.817 1253.42 253.82 1253.42 216.355V110.395H1300.77V210.379C1300.77 222.791 1306.74 230.605 1318.46 230.605C1329.73 230.605 1335.93 222.791 1335.93 211.758V110.395Z" fill="#184962"/>
<path d="M1179.89 274.046C1128.41 274.046 1096.23 240.029 1096.23 191.301C1096.23 143.493 1129.1 107.637 1182.65 107.637C1209.32 107.637 1231.15 113.613 1238.51 118.899V168.317C1228.62 160.502 1209.55 151.538 1182.65 151.538C1154.84 151.538 1143.58 171.305 1143.58 191.301C1143.58 217.504 1160.13 231.065 1180.35 231.065C1186.56 231.065 1193.69 229.916 1198.28 227.617V184.176H1242.87V255.888C1224.72 268.99 1198.97 274.046 1179.89 274.046Z" fill="#184962"/>
<path d="M963.873 270.642H917.195V109.771H963.873V166.306H1002.85V109.771H1049.52V270.642H1002.85V212.269H963.873V270.642Z" fill="#184962"/>
<path d="M872.529 273.237C824.342 273.237 790.055 237.685 790.055 192.042C790.055 135.159 830.828 107.177 872.76 107.177C884.112 107.177 897.086 109.012 906.816 112.452V167.041C901.024 159.931 889.904 153.05 874.614 153.05C851.215 153.05 837.778 169.793 837.778 190.207C837.778 210.85 851.91 227.364 874.614 227.364C889.672 227.364 901.024 221.171 906.816 214.52V267.273C896.854 271.173 883.417 273.237 872.529 273.237Z" fill="#184962"/>
<path d="M718.013 270.642H670.703V109.771H718.243C762.798 109.771 785.075 128.846 785.075 162.858C785.075 180.784 774.281 194.803 763.487 201.008L792.654 270.642H739.602L720.08 206.983H718.013V270.642ZM718.013 149.759V179.865H721.458C733.401 179.865 738.453 172.74 738.453 164.927C738.453 154.125 730.645 149.759 720.999 149.759H718.013Z" fill="#184962"/>
<path d="M573.18 270.642H525.398L558.263 109.771H630.052L662.917 270.642H613.037L608.376 240.996H577.842L573.18 270.642ZM593.458 143.554L584.368 201.008H602.316L593.458 143.554Z" fill="#184962"/>
<path d="M517.613 270.642H421.609V109.771H517.613V155.734H469.15V169.523H517.613V210.89H469.15V224.679H517.613V270.642Z" fill="#184962"/>
<path d="M370.467 168.417L379.461 172.087C403.909 181.95 413.827 197.547 413.827 220.712C413.827 251.677 393.761 273.237 360.78 273.237C341.175 273.237 325.953 270.943 311.423 261.539V210.62C323.647 223.465 337.946 232.639 357.089 232.639C362.855 232.639 369.775 231.034 369.775 223.465C369.775 217.731 362.163 214.52 353.86 211.079L340.022 205.345C318.573 196.4 310.039 183.326 310.039 160.389C310.039 129.655 334.487 107.177 364.701 107.177C384.997 107.177 398.604 111.764 406.216 116.581V168.647C396.759 154.885 383.613 148.004 367.699 148.004C360.78 148.004 355.014 150.068 355.014 155.573C355.014 161.766 363.317 165.435 370.467 168.417Z" fill="#184962"/>
</svg>
