
<?xml version="1.0" encoding="UTF-8"?>
<svg id="Ebene_1" xmlns="http://www.w3.org/2000/svg" version="1.1" viewBox="0 0 1280 900">
  <!-- Generator: Adobe Illustrator 29.0.1, SVG Export Plug-In . SVG Version: 2.1.0 Build 192)  -->
  <defs>
    <style>
      .st0 {
        fill: #fff;
      }
    </style>
  </defs>
  <g>
    <path class="st0" d="M657.8,488.5c28.9,0,52.7,7.8,68.8,22.8h42.9c-3.6-2.9-7.2-6.8-10.3-11.6-4.8-7.4-8.4-16.9-9.4-28.2v-28.4c-7.8-11.8-20-21.2-37.8-28.4l-12.7-5.2c-10.1-4.2-21.8-9.4-21.8-18.2s8.1-10.7,17.9-10.7c22.5,0,41,9.8,54.3,29.3v-59.8c0-5.1-.4-9.9-1.1-14.6-6.3-43.5-41-66.7-90.9-66.7s-90.7,29.3-90.7,83.6v119.2c-1.1,19.5-10.2,32.2-19.7,39.8h43.1c15.9-14.9,39-22.8,67.3-22.8h0Z"/>
    <path class="st0" d="M724.9,185.9c-7.2-5.1-41.7-17.4-79-15.7-104.5,4.7-148.7,92.6-132.1,154.1,5.5,20.4,14.7,37.7,26.8,51.4-.6-2.4-1.2-4.8-1.6-7.1-7.8-49,11.5-86.8,46.3-111.8,40.4-29,98.6-19.6,109.3-15.9l30.2-55h0Z"/>
  </g>
  <g>
    <path class="st0" d="M1109,725.9h-32.7v-116.9h32.7c51.4,0,69.3,28.6,69.3,56.8s-18.5,60.1-69.3,60.1ZM1110.6,640.9v52.8h2.3c17.9,0,29.9-7.8,29.9-26.9s-12-25.9-30.4-25.9h-1.8Z"/>
    <path class="st0" d="M1020.1,725.9h-34.4v-116.9h34.6c32.4,0,48.6,13.9,48.6,38.6s-7.9,23.2-15.7,27.7l21.2,50.6h-38.6l-14.2-46.3h-1.5v46.3ZM1020.1,638.1v21.9h2.5c8.7,0,12.4-5.2,12.4-10.9s-5.7-11-12.7-11h-2.2Z"/>
    <path class="st0" d="M915.4,725.9h-34.2l23.5-116.9h51.4l23.6,116.9h-35.7l-3.3-21.5h-21.9l-3.3,21.5ZM929.9,633.6l-6.5,41.8h12.9l-6.4-41.8Z"/>
    <path class="st0" d="M847.2,609h33.9v75.8c0,27.9-18.4,42.9-46.6,42.9s-47.3-14.5-47.3-41.8v-77h34.4v72.7c0,9,4.3,14.7,12.9,14.7s12.7-5.7,12.7-13.7v-73.7Z"/>
    <path class="st0" d="M733.8,727.9c-37.4,0-60.8-24.7-60.8-60.1s23.9-60.8,62.8-60.8,35.2,4.3,40.6,8.2v35.9c-7.2-5.7-21-12.2-40.6-12.2s-28.4,14.4-28.4,28.9,12,28.9,26.7,28.9,9.7-.8,13-2.5v-31.6h32.4v52.1c-13.2,9.5-31.9,13.2-45.8,13.2Z"/>
    <path class="st0" d="M576.8,725.5h-33.9v-116.9h33.9v41.1h28.3v-41.1h33.9v116.9h-33.9v-42.4h-28.3v42.4Z"/>
    <path class="st0" d="M510.4,727.4c-35,0-59.9-25.8-59.9-59s29.6-61.7,60.1-61.7,17.7,1.3,24.7,3.8v39.7c-4.2-5.2-12.3-10.2-23.4-10.2-17,0-26.8,12.2-26.8,27s10.3,27,26.8,27,19.2-4.5,23.4-9.3v38.3c-7.2,2.8-17,4.3-24.9,4.3Z"/>
    <path class="st0" d="M398.2,725.5h-34.4v-116.9h34.5c32.4,0,48.6,13.9,48.6,38.6s-7.8,23.2-15.7,27.7l21.2,50.6h-38.6l-14.2-46.3h-1.5v46.3ZM398.2,637.6v21.9h2.5c8.7,0,12.3-5.2,12.3-10.9s-5.7-11-12.7-11h-2.2Z"/>
    <path class="st0" d="M292.9,725.5h-34.7l23.9-116.9h52.2l23.9,116.9h-36.2l-3.4-21.5h-22.2l-3.4,21.5ZM307.7,633.1l-6.6,41.7h13l-6.4-41.7Z"/>
    <path class="st0" d="M252.5,725.5h-69.8v-116.9h69.8v33.4h-35.2v10h35.2v30.1h-35.2v10h35.2v33.4Z"/>
    <path class="st0" d="M145.6,651.2l6.5,2.7c17.8,7.2,25,18.5,25,35.3s-14.6,38.2-38.5,38.2-25.3-1.7-35.9-8.5v-37c8.9,9.3,19.3,16,33.2,16s9.2-1.2,9.2-6.7-5.5-6.5-11.6-9l-10.1-4.2c-15.6-6.5-21.8-16-21.8-32.7s17.8-38.7,39.7-38.7,24.6,3.3,30.2,6.8v37.8c-6.9-10-16.4-15-28-15s-9.2,1.5-9.2,5.5,6,7.2,11.2,9.3Z"/>
  </g>
  <metadata>
    <sfw xmlns="http://ns.adobe.com/SaveForWeb/1.0/">
      <slices/>
      <sliceSourceBounds x="97.71" y="-728.95" width="1076.58" height="557.9" bottomLeftOrigin="true"/>
    </sfw>
  </metadata>
</svg>